<?xml version="1.0" encoding="UTF-8"?>
<svg id="Layer_1" data-name="Layer 1" xmlns="http://www.w3.org/2000/svg" viewBox="0 0 1331.19 99.89">
  <defs>
    <style>
      .cls-1 {
        letter-spacing: -.08em;
      }

      .cls-2 {
        letter-spacing: -.01em;
      }

      .cls-3 {
        letter-spacing: 0em;
      }

      .cls-4 {
        fill: none;
        stroke: #000;
        stroke-miterlimit: 10;
        stroke-width: 3px;
      }

      .cls-5 {
        letter-spacing: 0em;
      }

      .cls-6 {
        letter-spacing: 0em;
      }

      .cls-7 {
        letter-spacing: 0em;
      }

      .cls-8 {
        letter-spacing: 0em;
      }

      .cls-9 {
        letter-spacing: 0em;
      }

      .cls-10 {
        letter-spacing: 0em;
      }

      .cls-11 {
        letter-spacing: 0em;
      }

      .cls-12 {
        letter-spacing: 0em;
      }

      .cls-13 {
        font-family: MyriadPro-Regular, 'Myriad Pro';
        font-size: 18.89px;
      }

      .cls-14, .cls-15, .cls-16, .cls-17, .cls-18, .cls-19, .cls-20, .cls-21, .cls-22, .cls-23, .cls-24, .cls-25, .cls-26 {
        stroke-width: 0px;
      }

      .cls-15 {
        fill: #808066;
      }

      .cls-16 {
        fill: #3084bf;
      }

      .cls-17 {
        fill: #40afff;
      }

      .cls-18 {
        fill: #205780;
      }

      .cls-19 {
        fill: #bf3030;
      }

      .cls-20 {
        fill: #bf6c30;
      }

      .cls-21 {
        fill: #bfbf99;
      }

      .cls-22 {
        fill: #804820;
      }

      .cls-23 {
        fill: #802020;
      }

      .cls-24 {
        fill: #ffa040;
      }

      .cls-25 {
        fill: #ffc;
      }

      .cls-26 {
        fill: #ff4040;
      }
    </style>
  </defs>
  <g>
    <rect class="cls-17" x=".5" y="36.15" width="108.58" height="17.89"/>
    <path class="cls-14" d="m108.58,36.65v16.89H1v-16.89h107.58m1-1H0v18.89h109.58v-18.89h0Z"/>
  </g>
  <g>
    <rect class="cls-16" x="110.08" y="36.15" width="108.58" height="17.89"/>
    <path class="cls-14" d="m218.16,36.65v16.89h-107.58v-16.89h107.58m1-1h-109.58v18.89h109.58v-18.89h0Z"/>
  </g>
  <g>
    <rect class="cls-18" x="219.66" y="36.15" width="108.58" height="17.89"/>
    <path class="cls-14" d="m327.74,36.65v16.89h-107.58v-16.89h107.58m1-1h-109.58v18.89h109.58v-18.89h0Z"/>
  </g>
  <text class="cls-13" transform="translate(145.47 15.81)"><tspan class="cls-9" x="0" y="0">S</tspan><tspan x="9.43" y="0">e</tspan><tspan class="cls-1" x="18.89" y="0">F</tspan><tspan class="cls-3" x="26.62" y="0">A</tspan></text>
  <g>
    <rect class="cls-24" x="1002.96" y="36.15" width="108.58" height="17.89"/>
    <path class="cls-14" d="m1111.04,36.65v16.89h-107.58v-16.89h107.58m1-1h-109.58v18.89h109.58v-18.89h0Z"/>
  </g>
  <g>
    <rect class="cls-20" x="1112.54" y="36.15" width="108.58" height="17.89"/>
    <path class="cls-14" d="m1220.62,36.65v16.89h-107.58v-16.89h107.58m1-1h-109.58v18.89h109.58v-18.89h0Z"/>
  </g>
  <g>
    <rect class="cls-22" x="1222.12" y="36.15" width="108.58" height="17.89"/>
    <path class="cls-14" d="m1330.19,36.65v16.89h-107.58v-16.89h107.58m1-1h-109.58v18.89h109.58v-18.89h0Z"/>
  </g>
  <text class="cls-13" transform="translate(455.76 19.59)"><tspan x="0" y="0">GANSpa</tspan><tspan class="cls-8" x="65.37" y="0">c</tspan><tspan class="cls-3" x="73.72" y="0">e</tspan></text>
  <g>
    <rect class="cls-25" x="668.36" y="36.15" width="108.58" height="17.89"/>
    <path class="cls-14" d="m776.44,36.65v16.89h-107.58v-16.89h107.58m1-1h-109.58v18.89h109.58v-18.89h0Z"/>
  </g>
  <g>
    <rect class="cls-21" x="777.94" y="36.15" width="108.58" height="17.89"/>
    <path class="cls-14" d="m886.02,36.65v16.89h-107.58v-16.89h107.58m1-1h-109.58v18.89h109.58v-18.89h0Z"/>
  </g>
  <g>
    <rect class="cls-15" x="887.52" y="36.15" width="108.58" height="17.89"/>
    <path class="cls-14" d="m995.6,36.65v16.89h-107.58v-16.89h107.58m1-1h-109.58v18.89h109.58v-18.89h0Z"/>
  </g>
  <text class="cls-13" transform="translate(777.44 17.7)"><tspan class="cls-5" x="0" y="0">S</tspan><tspan class="cls-12" x="9.26" y="0">t</tspan><tspan x="15.68" y="0">yleChannel</tspan></text>
  <g>
    <line class="cls-4" x1="0" y1="70.13" x2="324.62" y2="70.13"/>
    <polygon class="cls-14" points="317.45 76.23 323.56 70.13 317.45 64.03 322.63 64.03 328.74 70.13 322.63 76.23 317.45 76.23"/>
  </g>
  <text class="cls-13" transform="translate(234.74 95.16)"><tspan class="cls-7" x="0" y="0">D</tspan><tspan x="12.66" y="0">eep L</tspan><tspan class="cls-11" x="55.26" y="0">a</tspan><tspan class="cls-2" x="64.22" y="0">y</tspan><tspan x="72.92" y="0">ers</tspan></text>
  <g>
    <rect class="cls-26" x="334.76" y="36.21" width="108.58" height="17.89"/>
    <path class="cls-14" d="m442.84,36.71v16.89h-107.58v-16.89h107.58m1-1h-109.58v18.89h109.58v-18.89h0Z"/>
  </g>
  <g>
    <rect class="cls-19" x="444.34" y="36.21" width="108.58" height="17.89"/>
    <path class="cls-14" d="m552.42,36.71v16.89h-107.58v-16.89h107.58m1-1h-109.58v18.89h109.58v-18.89h0Z"/>
  </g>
  <g>
    <rect class="cls-23" x="553.92" y="36.21" width="108.58" height="17.89"/>
    <path class="cls-14" d="m662,36.71v16.89h-107.58v-16.89h107.58m1-1h-109.58v18.89h109.58v-18.89h0Z"/>
  </g>
  <text class="cls-13" transform="translate(1126.84 19.76)"><tspan x="0" y="0">L</tspan><tspan class="cls-10" x="8.92" y="0">a</tspan><tspan class="cls-8" x="17.95" y="0">t</tspan><tspan x="24.09" y="0">e</tspan><tspan class="cls-10" x="33.55" y="0">n</tspan><tspan class="cls-6" x="43.96" y="0">tCLR</tspan></text>
</svg>